# xmcd
#
# Track frame offsets:
#	150
#	12367
#	22291
#	37627
#	49428
#	58711
#	69208
#	84872
#	96824
#	110256
#	130234
#	140762
#	153163
#	161509
#	174814
#	184678
#	193748
#	204830
#	214323
#	224495
#	235848
#	246222
#
# Disc length: 3514 seconds
#
# Revision: 6
# Processed by: cddbd v1.5PL3 Copyright (c) Steve Scherf et al.
# Submitted via: dBpowerAMP V4.0
#
DISCID=2d0db816
DTITLE=Various Artist - Happy Birthday, Buck!  A Texas Salute to Buck Owens
DYEAR=2002
DGENRE=Honky Tonk
TTITLE0=Made in Japan - David Ball
TTITLE1=How Long Will my Baby be Gone - Rick Trevino
TTITLE2=Under Your Spell - The Derailers
TTITLE3=Down to The River - Rosie Flores
TTITLE4=Second Fiddle - Rodney Crowell
TTITLE5=Hot Dog - Toni Price
TTITLE6=Sweet Rosie Jones - Jim Lauderdale
TTITLE7=Tall Dark Stranger - Ted Roddy with The Jordanaires
TTITLE8=Storm of Love - Jeff Hughes
TTITLE9=Buckaroo - Casper Rawls and Friends
TTITLE10=Yer Fer Me - Susanna Van Tassel
TTITLE11=Think of Me - Buddy Owens and Ray Benson with Flaco Jimenez
TTITLE12=Hello Trouble - Libbi Bosworth
TTITLE13=Palm of Your Hand - Monte Warden
TTITLE14=We Split The Blanket - The Geezinslaws
TTITLE15=If You Ain't Lovin', You Ain't Livin' - Amy Neuenschwander
TTITLE16=Mental Cruelty - Roy Heinrich and Elizabeth McQueen
TTITLE17=Flash, Crash, And Thunder - The LeRoi Brothers
TTITLE18=Down on The Corner of Love - Tracie Lynn
TTITLE19=Big Game Hunter - The Cornell Hurd Band
TTITLE20=Before You Go - Doyle Holly
TTITLE21=Love's Gonna Live Here - Buck Owens
EXTD=
EXTT0=
EXTT1=
EXTT2=
EXTT3=
EXTT4=
EXTT5=
EXTT6=
EXTT7=
EXTT8=
EXTT9=
EXTT10=
EXTT11=
EXTT12=
EXTT13=
EXTT14=
EXTT15=
EXTT16=
EXTT17=
EXTT18=
EXTT19=
EXTT20=
EXTT21=
PLAYORDER=
